{"asset":{"version":"2.0","generator":"VECTARY"},"nodes":[{"translation":[-0.04567631543118864,0,-0.04428334559310844],"scale":[0.001,0.001,0.001],"rotation":[-0.7067226630896289,0.02330402273219681,0.023304022732196828,0.706722663089629],"name":"uploads_files_2099933_clock_model","children":[1,2,3,4,5,6,7,8]},{"translation":[0,0,0],"scale":[1,1,1],"rotation":[0.7071067811865475,0,0,0.7071067811865476],"name":"_done_model_pCylinder010","mesh":0},{"translation":[0,0,0],"scale":[1,1,1],"rotation":[0.7071067811865475,0,0,0.7071067811865476],"name":"_done_model_pCylinder011","mesh":1},{"translation":[0,0,0],"scale":[1,1,1],"rotation":[0.7071067811865475,0,0,0.7071067811865476],"name":"_done_model_pCylinder012","mesh":2},{"translation":[0,0,0],"scale":[1,1,1],"rotation":[0.7071067811865475,0,0,0.7071067811865476],"name":"_done_model_pCylinder013","mesh":3},{"translation":[0,0,0],"scale":[1,1,1],"rotation":[0.7071067811865475,0,0,0.7071067811865476],"name":"_done_model_polySurface020","mesh":4},{"translation":[0,0,0],"scale":[1,1,1],"rotation":[0.7071067811865475,0,0,0.7071067811865476],"name":"_done_model_polySurface021","mesh":5},{"translation":[0,0,0],"scale":[1,1,1],"rotation":[0.7071067811865475,0,0,0.7071067811865476],"name":"polySurface020","mesh":6},{"translation":[0,0,0],"scale":[1,1,1],"rotation":[0.7071067811865475,0,0,0.7071067811865476],"name":"glass001","mesh":7}],"materials":[{"pbrMetallicRoughness":{"baseColorFactor":[0,0,0,1],"metallicFactor":0,"roughnessFactor":0.2},"name":"Secret Path","emissiveFactor":[0,0,0],"extensions":{},"alphaMode":"OPAQUE","doubleSided":false},{"pbrMetallicRoughness":{"baseColorFactor":[0,0,0,1],"metallicFactor":0,"roughnessFactor":0.2},"name":"Hidden Place","emissiveFactor":[0,0,0],"extensions":{},"alphaMode":"OPAQUE","doubleSided":false},{"pbrMetallicRoughness":{"baseColorFactor":[1,0.015175238159625197,0,1],"metallicFactor":1,"roughnessFactor":0.05},"name":"Silver Glossy","emissiveFactor":[0,0,0],"extensions":{},"alphaMode":"OPAQUE","doubleSided":false},{"pbrMetallicRoughness":{"baseColorFactor":[1,0.015175238159625197,0,1],"metallicFactor":1,"roughnessFactor":0.05},"name":"Silver Glossy 1","emissiveFactor":[0,0,0],"extensions":{},"alphaMode":"OPAQUE","doubleSided":false},{"pbrMetallicRoughness":{"baseColorFactor":[1,1,1,1],"metallicFactor":0,"roughnessFactor":0.2},"name":"Aria","emissiveFactor":[0,0,0],"extensions":{},"alphaMode":"OPAQUE","doubleSided":false},{"pbrMetallicRoughness":{"baseColorFactor":[0,0,0,1],"metallicFactor":0,"roughnessFactor":0.2},"name":"Tokyo","emissiveFactor":[0,0,0],"extensions":{},"alphaMode":"OPAQUE","doubleSided":false},{"pbrMetallicRoughness":{"baseColorFactor":[0.8670237934377415,0.8670237934377415,0.8670237934377415,1],"metallicFactor":0,"roughnessFactor":0.2},"name":"Arctic","emissiveFactor":[0,0,0],"extensions":{},"alphaMode":"OPAQUE","doubleSided":false},{"pbrMetallicRoughness":{"baseColorFactor":[0.8670237934377415,0.8670237934377415,0.8670237934377415,1],"metallicFactor":0,"roughnessFactor":0.2},"name":"Simply Delicious","emissiveFactor":[0,0,0],"extensions":{},"alphaMode":"OPAQUE","doubleSided":false}],"meshes":[{"primitives":[{"mode":4,"attributes":{"POSITION":1,"NORMAL":2,"TEXCOORD_0":3},"material":0,"indices":0}]},{"primitives":[{"mode":4,"attributes":{"POSITION":5,"NORMAL":6,"TEXCOORD_0":7},"material":1,"indices":4}]},{"primitives":[{"mode":4,"attributes":{"POSITION":9,"NORMAL":10,"TEXCOORD_0":11},"material":2,"indices":8}]},{"primitives":[{"mode":4,"attributes":{"POSITION":13,"NORMAL":14,"TEXCOORD_0":15},"material":3,"indices":12}]},{"primitives":[{"mode":4,"attributes":{"POSITION":17,"NORMAL":18,"TEXCOORD_0":19},"material":4,"indices":16}]},{"primitives":[{"mode":4,"attributes":{"POSITION":21,"NORMAL":22,"TEXCOORD_0":23},"material":5,"indices":20}]},{"primitives":[{"mode":4,"attributes":{"POSITION":25,"NORMAL":26,"TEXCOORD_0":27},"material":6,"indices":24}]},{"primitives":[{"mode":4,"attributes":{"POSITION":29,"NORMAL":30,"TEXCOORD_0":31},"material":7,"indices":28}]}],"accessors":[{"bufferView":0,"byteOffset":0,"componentType":5125,"count":3000,"type":"SCALAR"},{"bufferView":1,"byteOffset":0,"componentType":5126,"count":681,"max":[66.70635986328125,75.44538879394531,-65.77420043945312],"min":[64.08634948730469,72.1336898803711,-68.69615936279297],"type":"VEC3"},{"bufferView":2,"byteOffset":0,"componentType":5126,"count":681,"type":"VEC3"},{"bufferView":3,"byteOffset":0,"componentType":5126,"count":681,"type":"VEC2"},{"bufferView":4,"byteOffset":0,"componentType":5125,"count":900,"type":"SCALAR"},{"bufferView":5,"byteOffset":0,"componentType":5126,"count":321,"max":[66.01838684082031,74.2391586303711,-67.36344146728516],"min":[65.60716247558594,73.74337768554688,-67.81453704833984],"type":"VEC3"},{"bufferView":6,"byteOffset":0,"componentType":5126,"count":321,"type":"VEC3"},{"bufferView":7,"byteOffset":0,"componentType":5126,"count":321,"type":"VEC2"},{"bufferView":8,"byteOffset":0,"componentType":5125,"count":516,"type":"SCALAR"},{"bufferView":9,"byteOffset":0,"componentType":5126,"count":123,"max":[69.08623504638672,78.99412536621094,-61.08984375],"min":[64.68646240234375,72.29942321777344,-69.2874526977539],"type":"VEC3"},{"bufferView":10,"byteOffset":0,"componentType":5126,"count":123,"type":"VEC3"},{"bufferView":11,"byteOffset":0,"componentType":5126,"count":123,"type":"VEC2"},{"bufferView":12,"byteOffset":0,"componentType":5125,"count":516,"type":"SCALAR"},{"bufferView":13,"byteOffset":0,"componentType":5126,"count":123,"max":[67.61840057373047,79.59751892089844,-65.84883880615234],"min":[57.508121490478516,72.573486328125,-74.32893371582031],"type":"VEC3"},{"bufferView":14,"byteOffset":0,"componentType":5126,"count":123,"type":"VEC3"},{"bufferView":15,"byteOffset":0,"componentType":5126,"count":123,"type":"VEC2"},{"bufferView":16,"byteOffset":0,"componentType":5125,"count":7854,"type":"SCALAR"},{"bufferView":17,"byteOffset":0,"componentType":5126,"count":1677,"max":[76.46271514892578,88.25444793701172,-52.413978576660156],"min":[51.644535064697266,58.03656768798828,-79.68309020996094],"type":"VEC3"},{"bufferView":18,"byteOffset":0,"componentType":5126,"count":1677,"type":"VEC3"},{"bufferView":19,"byteOffset":0,"componentType":5126,"count":1677,"type":"VEC2"},{"bufferView":20,"byteOffset":0,"componentType":5125,"count":5520,"type":"SCALAR"},{"bufferView":21,"byteOffset":0,"componentType":5126,"count":1480,"max":[76.859619140625,88.84712219238281,-52.44027328491211],"min":[52.000675201416016,57.80221939086914,-80.28759002685547],"type":"VEC3"},{"bufferView":22,"byteOffset":0,"componentType":5126,"count":1480,"type":"VEC3"},{"bufferView":23,"byteOffset":0,"componentType":5126,"count":1480,"type":"VEC2"},{"bufferView":24,"byteOffset":0,"componentType":5125,"count":234,"type":"SCALAR"},{"bufferView":25,"byteOffset":0,"componentType":5126,"count":80,"max":[75.57676696777344,87.66179656982422,-55.287742614746094],"min":[55.00953674316406,59.80820846557617,-78.88821411132812],"type":"VEC3"},{"bufferView":26,"byteOffset":0,"componentType":5126,"count":80,"type":"VEC3"},{"bufferView":27,"byteOffset":0,"componentType":5126,"count":80,"type":"VEC2"},{"bufferView":28,"byteOffset":0,"componentType":5125,"count":948,"type":"SCALAR"},{"bufferView":29,"byteOffset":0,"componentType":5126,"count":320,"max":[76.28289794921875,87.99729919433594,-55.797096252441406],"min":[55.61655807495117,60.09661865234375,-79.4807357788086],"type":"VEC3"},{"bufferView":30,"byteOffset":0,"componentType":5126,"count":320,"type":"VEC3"},{"bufferView":31,"byteOffset":0,"componentType":5126,"count":320,"type":"VEC2"}],"bufferViews":[{"buffer":0,"byteOffset":0,"byteLength":12000,"target":34963},{"buffer":0,"byteOffset":12000,"byteLength":8172,"target":34962},{"buffer":0,"byteOffset":20172,"byteLength":8172,"target":34962},{"buffer":0,"byteOffset":28344,"byteLength":5448,"target":34962},{"buffer":0,"byteOffset":33792,"byteLength":3600,"target":34963},{"buffer":0,"byteOffset":37392,"byteLength":3852,"target":34962},{"buffer":0,"byteOffset":41244,"byteLength":3852,"target":34962},{"buffer":0,"byteOffset":45096,"byteLength":2568,"target":34962},{"buffer":0,"byteOffset":47664,"byteLength":2064,"target":34963},{"buffer":0,"byteOffset":49728,"byteLength":1476,"target":34962},{"buffer":0,"byteOffset":51204,"byteLength":1476,"target":34962},{"buffer":0,"byteOffset":52680,"byteLength":984,"target":34962},{"buffer":0,"byteOffset":53664,"byteLength":2064,"target":34963},{"buffer":0,"byteOffset":55728,"byteLength":1476,"target":34962},{"buffer":0,"byteOffset":57204,"byteLength":1476,"target":34962},{"buffer":0,"byteOffset":58680,"byteLength":984,"target":34962},{"buffer":0,"byteOffset":59664,"byteLength":31416,"target":34963},{"buffer":0,"byteOffset":91080,"byteLength":20124,"target":34962},{"buffer":0,"byteOffset":111204,"byteLength":20124,"target":34962},{"buffer":0,"byteOffset":131328,"byteLength":13416,"target":34962},{"buffer":0,"byteOffset":144744,"byteLength":22080,"target":34963},{"buffer":0,"byteOffset":166824,"byteLength":17760,"target":34962},{"buffer":0,"byteOffset":184584,"byteLength":17760,"target":34962},{"buffer":0,"byteOffset":202344,"byteLength":11840,"target":34962},{"buffer":0,"byteOffset":214184,"byteLength":936,"target":34963},{"buffer":0,"byteOffset":215120,"byteLength":960,"target":34962},{"buffer":0,"byteOffset":216080,"byteLength":960,"target":34962},{"buffer":0,"byteOffset":217040,"byteLength":640,"target":34962},{"buffer":0,"byteOffset":217680,"byteLength":3792,"target":34963},{"buffer":0,"byteOffset":221472,"byteLength":3840,"target":34962},{"buffer":0,"byteOffset":225312,"byteLength":3840,"target":34962},{"buffer":0,"byteOffset":229152,"byteLength":2560,"target":34962}],"scene":0,"scenes":[{"nodes":[0],"name":"Project Name"}],"extensionsUsed":["KHR_texture_transform"],"buffers":[{"byteLength":231712,"uri":"ProjectName.bin"}]}