{"asset":{"version":"2.0","generator":"VECTARY"},"nodes":[{"translation":[0,0,0],"scale":[0.001,0.001,0.001],"rotation":[-0.7071067811865475,0,0,0.7071067811865476],"name":"uploads_files_943809_TEJADO","children":[1,2,3,4,5]},{"translation":[0,0,0],"scale":[1,1,1],"rotation":[0.7071067811865475,0,0,0.7071067811865476],"name":"ROOF","mesh":0},{"translation":[0,0,0],"scale":[1,1,1],"rotation":[0.7071067811865475,0,0,0.7071067811865476],"name":"ROOF ROOF_T","mesh":1},{"translation":[59.301060935510506,0,0],"scale":[1,1,1],"rotation":[0.7071067811865475,0,0,0.7071067811865476],"name":"ORIGINALES TEJAS_HILERA","mesh":2},{"translation":[59.301060935510506,0,0],"scale":[1,1,1],"rotation":[0.7071067811865475,0,0,0.7071067811865476],"name":"ORIGINALES TEJAS","mesh":3},{"translation":[0,0,0],"scale":[1,1,1],"rotation":[0.7071067811865475,0,0,0.7071067811865476],"name":"ORIGINALES TEJA","mesh":4}],"materials":[{"pbrMetallicRoughness":{"baseColorFactor":[1,1,1,1],"baseColorTexture":{"index":0,"extensions":{"KHR_texture_transform":{"offset":[0,0],"scale":[1,1],"rotation":0}},"texCoord":0},"metallicRoughnessTexture":{"index":2,"extensions":{"KHR_texture_transform":{"offset":[0,0],"scale":[1,1],"rotation":0}},"texCoord":0},"metallicFactor":0,"roughnessFactor":1},"name":"Wood","normalTexture":{"index":1,"scale":1,"extensions":{"KHR_texture_transform":{"offset":[0,0],"scale":[1,1],"rotation":0}},"texCoord":0},"emissiveFactor":[0,0,0],"extensions":{},"alphaMode":"OPAQUE","doubleSided":false},{"pbrMetallicRoughness":{"baseColorFactor":[1,1,1,1],"baseColorTexture":{"index":3,"extensions":{"KHR_texture_transform":{"offset":[0,0],"scale":[1,1],"rotation":0}},"texCoord":0},"metallicRoughnessTexture":{"index":5,"extensions":{"KHR_texture_transform":{"offset":[0,0],"scale":[1,1],"rotation":0}},"texCoord":0},"metallicFactor":0,"roughnessFactor":1},"name":"Wood 1","normalTexture":{"index":4,"scale":1,"extensions":{"KHR_texture_transform":{"offset":[0,0],"scale":[1,1],"rotation":0}},"texCoord":0},"emissiveFactor":[0,0,0],"extensions":{},"alphaMode":"OPAQUE","doubleSided":false},{"pbrMetallicRoughness":{"baseColorFactor":[1,1,1,1],"baseColorTexture":{"index":6,"extensions":{"KHR_texture_transform":{"offset":[0,0],"scale":[1,1],"rotation":0}},"texCoord":0},"metallicRoughnessTexture":{"index":8,"extensions":{"KHR_texture_transform":{"offset":[0,0],"scale":[1,1],"rotation":0}},"texCoord":0},"metallicFactor":0,"roughnessFactor":1},"name":"Wood 2","normalTexture":{"index":7,"scale":1,"extensions":{"KHR_texture_transform":{"offset":[0,0],"scale":[1,1],"rotation":0}},"texCoord":0},"emissiveFactor":[0,0,0],"extensions":{},"alphaMode":"OPAQUE","doubleSided":false},{"pbrMetallicRoughness":{"baseColorFactor":[0.06003160713631324,0.016067700890886875,0.0003671362698159426,1],"metallicFactor":0,"roughnessFactor":0.2},"name":"Opera","emissiveFactor":[0,0,0],"extensions":{},"alphaMode":"OPAQUE","doubleSided":false},{"pbrMetallicRoughness":{"baseColorFactor":[0,0,0,1],"metallicFactor":0,"roughnessFactor":0.2},"name":"Morning Rush","emissiveFactor":[0,0,0],"extensions":{},"alphaMode":"OPAQUE","doubleSided":false}],"textures":[{"sampler":0,"source":0},{"sampler":0,"source":1},{"sampler":0,"source":2},{"sampler":0,"source":3},{"sampler":0,"source":4},{"sampler":0,"source":5},{"sampler":0,"source":6},{"sampler":0,"source":7},{"sampler":0,"source":8}],"images":[{"uri":"wood_Wood_006_Color.jpg","mimeType":"image/jpeg"},{"uri":"wood_Wood_006_NormalMap.jpg","mimeType":"image/jpeg"},{"uri":"metallicTexture&wood_Wood_006_Roughness_3.jpg","mimeType":"image/jpeg"},{"uri":"wood_027_base_1.jpg","mimeType":"image/jpeg"},{"uri":"wood_027_Normal_1.jpg","mimeType":"image/jpeg"},{"uri":"metallicTexture&wood_027_Rough_1.jpg","mimeType":"image/jpeg"},{"uri":"wood_027_base_2.jpg","mimeType":"image/jpeg"},{"uri":"wood_027_Normal_2.jpg","mimeType":"image/jpeg"},{"uri":"metallicTexture&wood_027_Rough_2.jpg","mimeType":"image/jpeg"}],"samplers":[{"wrapS":10497,"wrapT":10497}],"meshes":[{"primitives":[{"mode":4,"attributes":{"POSITION":1,"NORMAL":2,"TEXCOORD_0":3},"material":0,"indices":0}]},{"primitives":[{"mode":4,"attributes":{"POSITION":5,"NORMAL":6,"TEXCOORD_0":7},"material":1,"indices":4}]},{"primitives":[{"mode":4,"attributes":{"POSITION":9,"NORMAL":10,"TEXCOORD_0":11},"material":2,"indices":8}]},{"primitives":[{"mode":4,"attributes":{"POSITION":13,"NORMAL":14,"TEXCOORD_0":15},"material":3,"indices":12}]},{"primitives":[{"mode":4,"attributes":{"POSITION":17,"NORMAL":18,"TEXCOORD_0":19},"material":4,"indices":16}]}],"accessors":[{"bufferView":0,"byteOffset":0,"componentType":5125,"count":1848,"type":"SCALAR"},{"bufferView":1,"byteOffset":0,"componentType":5126,"count":1232,"max":[58.108551025390625,0.07000000029802322,0.8255320191383362],"min":[0,-0.4721660017967224,0],"type":"VEC3"},{"bufferView":2,"byteOffset":0,"componentType":5126,"count":1232,"type":"VEC3"},{"bufferView":3,"byteOffset":0,"componentType":5126,"count":1232,"type":"VEC2"},{"bufferView":4,"byteOffset":0,"componentType":5125,"count":70140,"type":"SCALAR"},{"bufferView":5,"byteOffset":0,"componentType":5126,"count":46760,"max":[58.108551025390625,-0.2569510042667389,25.138519287109375],"min":[0,-20.865888595581055,0],"type":"VEC3"},{"bufferView":6,"byteOffset":0,"componentType":5126,"count":46760,"type":"VEC3"},{"bufferView":7,"byteOffset":0,"componentType":5126,"count":46760,"type":"VEC2"},{"bufferView":8,"byteOffset":0,"componentType":5125,"count":8190,"type":"SCALAR"},{"bufferView":9,"byteOffset":0,"componentType":5126,"count":5460,"max":[-2.095794916152954,0.542165994644165,2],"min":[-60.204345703125,0,-2],"type":"VEC3"},{"bufferView":10,"byteOffset":0,"componentType":5126,"count":5460,"type":"VEC3"},{"bufferView":11,"byteOffset":0,"componentType":5126,"count":5460,"type":"VEC2"},{"bufferView":12,"byteOffset":0,"componentType":5125,"count":8190,"type":"SCALAR"},{"bufferView":13,"byteOffset":0,"componentType":5126,"count":5460,"max":[-2.095794916152954,0.542165994644165,2],"min":[-60.204345703125,0,-2],"type":"VEC3"},{"bufferView":14,"byteOffset":0,"componentType":5126,"count":5460,"type":"VEC3"},{"bufferView":15,"byteOffset":0,"componentType":5126,"count":5460,"type":"VEC2"},{"bufferView":16,"byteOffset":0,"componentType":5125,"count":234,"type":"SCALAR"},{"bufferView":17,"byteOffset":0,"componentType":5126,"count":156,"max":[-2.095794916152954,0.542165994644165,2],"min":[-3.756040096282959,0,-2],"type":"VEC3"},{"bufferView":18,"byteOffset":0,"componentType":5126,"count":156,"type":"VEC3"},{"bufferView":19,"byteOffset":0,"componentType":5126,"count":156,"type":"VEC2"}],"bufferViews":[{"buffer":0,"byteOffset":0,"byteLength":7392,"target":34963},{"buffer":0,"byteOffset":7392,"byteLength":14784,"target":34962},{"buffer":0,"byteOffset":22176,"byteLength":14784,"target":34962},{"buffer":0,"byteOffset":36960,"byteLength":9856,"target":34962},{"buffer":0,"byteOffset":46816,"byteLength":280560,"target":34963},{"buffer":0,"byteOffset":327376,"byteLength":561120,"target":34962},{"buffer":0,"byteOffset":888496,"byteLength":561120,"target":34962},{"buffer":0,"byteOffset":1449616,"byteLength":374080,"target":34962},{"buffer":0,"byteOffset":1823696,"byteLength":32760,"target":34963},{"buffer":0,"byteOffset":1856456,"byteLength":65520,"target":34962},{"buffer":0,"byteOffset":1921976,"byteLength":65520,"target":34962},{"buffer":0,"byteOffset":1987496,"byteLength":43680,"target":34962},{"buffer":0,"byteOffset":2031176,"byteLength":32760,"target":34963},{"buffer":0,"byteOffset":2063936,"byteLength":65520,"target":34962},{"buffer":0,"byteOffset":2129456,"byteLength":65520,"target":34962},{"buffer":0,"byteOffset":2194976,"byteLength":43680,"target":34962},{"buffer":0,"byteOffset":2238656,"byteLength":936,"target":34963},{"buffer":0,"byteOffset":2239592,"byteLength":1872,"target":34962},{"buffer":0,"byteOffset":2241464,"byteLength":1872,"target":34962},{"buffer":0,"byteOffset":2243336,"byteLength":1248,"target":34962}],"scene":0,"scenes":[{"nodes":[0],"name":"Project Name"}],"extensionsUsed":["KHR_texture_transform"],"buffers":[{"byteLength":2244584,"uri":"ProjectName.bin"}]}