{"asset":{"version":"2.0","generator":"VECTARY"},"nodes":[{"translation":[0,0.0038584640947716977,6.661338147750939e-19],"scale":[0.011140673944209123,0.011140673944209123,0.011140673944209123],"rotation":[-0.7071067811865475,0,0,0.7071067811865476],"name":"uploads_files_2435203_Sheet+Metal","children":[1,2]},{"translation":[0,0,0],"scale":[1,1,1],"rotation":[0.7071067811865475,0,0,0.7071067811865476],"name":"Plane_Plane.004","mesh":0},{"translation":[0,0,0],"scale":[1,1,1],"rotation":[0.7071067811865475,0,0,0.7071067811865476],"name":"Plane.001_Plane","mesh":1}],"materials":[{"pbrMetallicRoughness":{"baseColorFactor":[1,1,1,1],"baseColorTexture":{"index":0,"extensions":{"KHR_texture_transform":{"offset":[0,0],"scale":[5,5],"rotation":0}},"texCoord":0},"metallicRoughnessTexture":{"index":2,"extensions":{"KHR_texture_transform":{"offset":[0,0],"scale":[5,5],"rotation":0}},"texCoord":0},"metallicFactor":1,"roughnessFactor":1},"name":"Colored Flakes 1","normalTexture":{"index":1,"scale":0.3,"extensions":{"KHR_texture_transform":{"offset":[0,0],"scale":[5,5],"rotation":0}},"texCoord":0},"emissiveFactor":[0,0,0],"extensions":{"KHR_materials_clearcoat":{"clearcoatFactor":1,"clearcoatRoughnessFactor":0}},"alphaMode":"OPAQUE","doubleSided":false},{"pbrMetallicRoughness":{"baseColorFactor":[0.03423020656508195,0.04455262731642138,0.25902733248960613,1],"metallicFactor":0,"roughnessFactor":0.2},"name":"California","emissiveFactor":[0,0,0],"extensions":{},"alphaMode":"OPAQUE","doubleSided":false}],"textures":[{"sampler":0,"source":0},{"sampler":0,"source":1},{"sampler":0,"source":2}],"images":[{"uri":"2k-carpaint-base-midsaturation.jpg","mimeType":"image/jpeg"},{"uri":"2k-carpaint-normal.jpg","mimeType":"image/jpeg"},{"uri":"metallicTexture&2k-carpaint-roughness.jpg","mimeType":"image/jpeg"}],"samplers":[{"wrapS":10497,"wrapT":10497}],"meshes":[{"primitives":[{"mode":4,"attributes":{"POSITION":1,"NORMAL":2,"TEXCOORD_0":3},"material":0,"indices":0}]},{"primitives":[{"mode":4,"attributes":{"POSITION":5,"NORMAL":6,"TEXCOORD_0":7},"material":1,"indices":4}]}],"accessors":[{"bufferView":0,"byteOffset":0,"componentType":5125,"count":46296,"type":"SCALAR"},{"bufferView":1,"byteOffset":0,"componentType":5126,"count":16344,"max":[1.4846930503845215,0.07470300048589706,0.9596369862556458],"min":[-1.4846930503845215,-0.015204000286757946,-0.9596369862556458],"type":"VEC3"},{"bufferView":2,"byteOffset":0,"componentType":5126,"count":16344,"type":"VEC3"},{"bufferView":3,"byteOffset":0,"componentType":5126,"count":16344,"type":"VEC2"},{"bufferView":4,"byteOffset":0,"componentType":5125,"count":6,"type":"SCALAR"},{"bufferView":5,"byteOffset":0,"componentType":5126,"count":4,"max":[79.54183959960938,-0.01988999918103218,79.54183959960938],"min":[-79.54183959960938,-0.01988999918103218,-79.54183959960938],"type":"VEC3"},{"bufferView":6,"byteOffset":0,"componentType":5126,"count":4,"type":"VEC3"},{"bufferView":7,"byteOffset":0,"componentType":5126,"count":4,"type":"VEC2"}],"bufferViews":[{"buffer":0,"byteOffset":0,"byteLength":185184,"target":34963},{"buffer":0,"byteOffset":185184,"byteLength":196128,"target":34962},{"buffer":0,"byteOffset":381312,"byteLength":196128,"target":34962},{"buffer":0,"byteOffset":577440,"byteLength":130752,"target":34962},{"buffer":0,"byteOffset":708192,"byteLength":24,"target":34963},{"buffer":0,"byteOffset":708216,"byteLength":48,"target":34962},{"buffer":0,"byteOffset":708264,"byteLength":48,"target":34962},{"buffer":0,"byteOffset":708312,"byteLength":32,"target":34962}],"scene":0,"scenes":[{"nodes":[0],"name":"Project Name"}],"extensionsUsed":["KHR_texture_transform","KHR_materials_clearcoat"],"buffers":[{"byteLength":708344,"uri":"ProjectName.bin"}]}